<svg width="235" height="212" viewBox="0 0 235 212" fill="none" xmlns="http://www.w3.org/2000/svg">
<mask id="mask0_2_93" style="mask-type:alpha" maskUnits="userSpaceOnUse" x="181" y="179" width="30" height="56">
<path d="M181.289 219.415C181.632 206.153 198.68 187.522 207.359 179.193C209.94 192.551 212.713 218.059 206.165 227.55C197.466 240.158 180.86 235.993 181.289 219.415Z" fill="#849A72"/>
</mask>
<g mask="url(#mask0_2_93)">
<path d="M181.289 219.415C181.632 206.153 198.68 187.522 207.359 179.193C209.94 192.551 212.713 218.059 206.165 227.55C197.466 240.158 180.86 235.993 181.289 219.415Z" fill="#849A72"/>
<path d="M207.359 179.213C204.872 191.671 198.27 220.186 191.757 234.585" stroke="#145855" stroke-width="0.8" stroke-linecap="round" stroke-linejoin="round"/>
<path d="M181.6 222.409L198.438 214.93L207.575 224.066" stroke="#145855" stroke-width="0.8" stroke-linecap="round" stroke-linejoin="round"/>
<path d="M184.254 209.639L202.058 201.88L209.801 208.268" stroke="#145855" stroke-width="0.8" stroke-linecap="round" stroke-linejoin="round"/>
<path d="M192.844 195.597L204.88 190.31L209.289 194.719" stroke="#145855" stroke-width="0.8" stroke-linecap="round" stroke-linejoin="round"/>
</g>
<mask id="mask1_2_93" style="mask-type:alpha" maskUnits="userSpaceOnUse" x="111" y="166" width="58" height="63">
<path d="M115.15 201.241C124.643 184.541 154.777 170.978 168.658 166.284C163.396 183.829 160.256 208.526 141.182 222.93C123.791 236.064 103.285 222.117 115.15 201.241Z" fill="#849A72"/>
</mask>
<g mask="url(#mask1_2_93)">
<path d="M115.15 201.241C124.643 184.541 154.777 170.978 168.658 166.284C163.396 183.829 160.256 208.526 141.182 222.93C123.791 236.064 103.285 222.117 115.15 201.241Z" fill="#849A72"/>
<path d="M168.295 166.839C153.344 182.843 126.472 210.625 116.543 223.83" stroke="#145855" stroke-width="0.8" stroke-linecap="round" stroke-linejoin="round"/>
<path d="M128.368 187.368L146.805 189.694L156.231 204.491" stroke="#145855" stroke-width="0.8" stroke-linecap="round" stroke-linejoin="round"/>
<path d="M114.923 202.275L132.812 204.567L140.418 222.807" stroke="#145855" stroke-width="0.8" stroke-linecap="round" stroke-linejoin="round"/>
<path d="M146.017 176.511L158.205 177.469L163.286 185.883" stroke="#145855" stroke-width="0.8" stroke-linecap="round" stroke-linejoin="round"/>
</g>
<mask id="mask2_2_93" style="mask-type:alpha" maskUnits="userSpaceOnUse" x="65" y="145" width="79" height="37">
<path d="M82.036 147.669C102.08 142.942 131.057 148.623 143.04 152.055C130.754 163.163 101.82 184.615 84.3742 181.56C62.5673 177.741 56.9814 153.578 82.036 147.669Z" fill="#849A72"/>
</mask>
<g mask="url(#mask2_2_93)">
<path d="M82.036 147.669C102.08 142.942 131.057 148.623 143.04 152.055C130.754 163.163 101.82 184.615 84.3742 181.56C62.5673 177.741 56.9814 153.578 82.036 147.669Z" fill="#849A72"/>
<path d="M143.572 151.862C123.332 156.92 78.9459 166.906 63.3211 166.394" stroke="#145855" stroke-width="0.8" stroke-linecap="round" stroke-linejoin="round"/>
<path d="M120.541 170.013L125.708 156.007L116.132 146.432" stroke="#145855" stroke-width="0.8" stroke-linecap="round" stroke-linejoin="round"/>
<path d="M102.706 179.017L109.953 159.374L94.3095 143.73" stroke="#145855" stroke-width="0.8" stroke-linecap="round" stroke-linejoin="round"/>
<path d="M79.724 182.256L89.6452 163.354L73.7968 147.505" stroke="#145855" stroke-width="0.8" stroke-linecap="round" stroke-linejoin="round"/>
</g>
<mask id="mask3_2_93" style="mask-type:alpha" maskUnits="userSpaceOnUse" x="40" y="57" width="73" height="72">
<path d="M44.9633 87.8892C56.3738 110.141 94.9446 123.927 112.804 128.039C109.426 113.565 98.1688 80.9987 80.1587 66.5236C57.646 48.4297 30.7001 60.0746 44.9633 87.8892Z" fill="#849A72"/>
</mask>
<g mask="url(#mask3_2_93)">
<path d="M44.9633 87.8892C56.3738 110.141 94.9446 123.927 112.804 128.039C109.426 113.565 98.1688 80.9987 80.1587 66.5236C57.646 48.4297 30.7001 60.0746 44.9633 87.8892Z" fill="#849A72"/>
<path d="M44.2598 60.4225C58.3091 79.8409 105.446 123.076 114.919 129.307" stroke="#145855" stroke-width="0.8" stroke-linecap="round" stroke-linejoin="round"/>
<path d="M83.0495 120.235L97.7925 114.949L104.535 98.7493" stroke="#145855" stroke-width="0.8" stroke-linecap="round" stroke-linejoin="round"/>
<path d="M63.7957 108.555L82.801 101.067L90.9061 76.5439" stroke="#145855" stroke-width="0.8" stroke-linecap="round" stroke-linejoin="round"/>
<path d="M45.5325 93.9662L67.7076 86.6738L73.1826 60.6937" stroke="#145855" stroke-width="0.8" stroke-linecap="round" stroke-linejoin="round"/>
</g>
<mask id="mask4_2_93" style="mask-type:alpha" maskUnits="userSpaceOnUse" x="114" y="63" width="36" height="78">
<path d="M116.047 81.9739C110.596 101.508 121.631 129.349 127.83 140.828C135.417 130.716 150.369 105.187 149.49 83.9615C148.39 57.4302 122.861 57.5563 116.047 81.9739Z" fill="#849A72"/>
</mask>
<g mask="url(#mask4_2_93)">
<path d="M116.047 81.9739C110.596 101.508 121.631 129.349 127.83 140.828C135.417 130.716 150.369 105.187 149.49 83.9615C148.39 57.4302 122.861 57.5563 116.047 81.9739Z" fill="#849A72"/>
<path d="M127.352 141.406C129.739 122.287 134.913 79.7169 134.404 61.831" stroke="#145855" stroke-width="0.8" stroke-linecap="round" stroke-linejoin="round"/>
<path d="M116.262 116.383L129.049 125.153L142.71 117.862" stroke="#145855" stroke-width="0.8" stroke-linecap="round" stroke-linejoin="round"/>
<path d="M113.646 97.668L130.917 107.303L149.789 95.2097" stroke="#145855" stroke-width="0.8" stroke-linecap="round" stroke-linejoin="round"/>
<path d="M115.459 77.6355L133.048 86.3168L148.938 74.6438" stroke="#145855" stroke-width="0.8" stroke-linecap="round" stroke-linejoin="round"/>
</g>
<mask id="mask5_2_93" style="mask-type:alpha" maskUnits="userSpaceOnUse" x="156" y="87" width="45" height="74">
<path d="M163.478 103.442C154.809 122.752 156.536 149.608 158.483 160.622C169.721 153.137 193.681 132.656 199.62 110.617C207.045 83.0678 174.313 79.3038 163.478 103.442Z" fill="#849A72"/>
</mask>
<g mask="url(#mask5_2_93)">
<path d="M163.478 103.442C154.809 122.752 156.536 149.608 158.483 160.622C169.721 153.137 193.681 132.656 199.62 110.617C207.045 83.0678 174.313 79.3038 163.478 103.442Z" fill="#849A72"/>
<path d="M157.734 161.786C166.934 142.993 186.073 101.298 189.032 84.8618" stroke="#145855" stroke-width="0.8" stroke-linecap="round" stroke-linejoin="round"/>
<path d="M155.177 133.531L165.325 145.67L182.733 140.876" stroke="#145855" stroke-width="0.8" stroke-linecap="round" stroke-linejoin="round"/>
<path d="M159.34 109.925L173.985 126.646L197.073 120.927" stroke="#145855" stroke-width="0.8" stroke-linecap="round" stroke-linejoin="round"/>
</g>
<mask id="mask6_2_93" style="mask-type:alpha" maskUnits="userSpaceOnUse" x="193" y="137" width="21" height="38">
<path d="M198.006 143.696C192.426 152.288 192.655 168.123 193.468 174.967C198.052 172.516 209.029 162.457 212.505 152.541C217.788 137.469 204.981 132.956 198.006 143.696Z" fill="#849A72"/>
</mask>
<g mask="url(#mask6_2_93)">
<path d="M198.006 143.696C192.426 152.288 192.655 168.123 193.468 174.967C198.052 172.516 209.029 162.457 212.505 152.541C217.788 137.469 204.981 132.956 198.006 143.696Z" fill="#849A72"/>
<path d="M193.11 175.905C197.21 168.734 206.181 150.898 209.261 136.918" stroke="#145855" stroke-width="0.8" stroke-linecap="round" stroke-linejoin="round"/>
<path d="M193.018 156.899L199.252 164.052L208.774 161.223" stroke="#145855" stroke-width="0.8" stroke-linecap="round" stroke-linejoin="round"/>
<path d="M196.177 145.473L203.723 153.019L214.099 150.124" stroke="#145855" stroke-width="0.8" stroke-linecap="round" stroke-linejoin="round"/>
</g>
<path d="M273.027 182.449C223.773 186.578 165.297 177.911 111.682 126.922" stroke="#849A72" stroke-width="1.5" stroke-linecap="round" stroke-linejoin="round"/>
<mask id="mask7_2_93" style="mask-type:alpha" maskUnits="userSpaceOnUse" x="238" y="144" width="22" height="39">
<path d="M240.149 160.56C244.231 170.621 252.848 179.684 256.646 182.957C259.204 176.601 262.12 157.905 254.735 149.576C245.503 139.164 235.045 147.984 240.149 160.56Z" fill="#849A72"/>
</mask>
<g mask="url(#mask7_2_93)">
</g>
</svg>
