<svg width="25" height="26" viewBox="0 0 25 26" fill="none" xmlns="http://www.w3.org/2000/svg">
<path d="M12.7576 6.88779C9.29134 6.88779 6.4939 9.68524 6.4939 13.1515C6.4939 16.6178 9.29134 19.4152 12.7576 19.4152C16.2239 19.4152 19.0213 16.6178 19.0213 13.1515C19.0213 9.68524 16.2239 6.88779 12.7576 6.88779ZM12.7576 17.2225C10.516 17.2225 8.68666 15.3931 8.68666 13.1515C8.68666 10.9099 10.516 9.08055 12.7576 9.08055C14.9992 9.08055 16.8286 10.9099 16.8286 13.1515C16.8286 15.3931 14.9992 17.2225 12.7576 17.2225ZM19.2778 5.17146C18.4685 5.17146 17.815 5.82501 17.815 6.63432C17.815 7.44362 18.4685 8.09717 19.2778 8.09717C20.0872 8.09717 20.7407 7.44667 20.7407 6.63432C20.7409 6.44214 20.7033 6.25181 20.6298 6.07422C20.5564 5.89663 20.4487 5.73527 20.3128 5.59938C20.1769 5.4635 20.0155 5.35575 19.8379 5.28232C19.6604 5.20889 19.47 5.17122 19.2778 5.17146ZM24.9674 13.1515C24.9674 11.4657 24.9827 9.79518 24.888 8.11244C24.7933 6.15789 24.3475 4.42324 22.9182 2.99397C21.4859 1.56166 19.7543 1.11883 17.7997 1.02416C16.1139 0.929486 14.4434 0.944756 12.7607 0.944756C11.0749 0.944756 9.40434 0.929486 7.7216 1.02416C5.76706 1.11883 4.0324 1.56471 2.60314 2.99397C1.17082 4.42629 0.727994 6.15789 0.633321 8.11244C0.538647 9.79824 0.553917 11.4688 0.553917 13.1515C0.553917 14.8342 0.538647 16.5078 0.633321 18.1906C0.727994 20.1451 1.17387 21.8798 2.60314 23.309C4.03545 24.7413 5.76706 25.1842 7.7216 25.2788C9.4074 25.3735 11.0779 25.3582 12.7607 25.3582C14.4465 25.3582 16.117 25.3735 17.7997 25.2788C19.7543 25.1842 21.4889 24.7383 22.9182 23.309C24.3505 21.8767 24.7933 20.1451 24.888 18.1906C24.9857 16.5078 24.9674 14.8373 24.9674 13.1515ZM22.2799 20.3528C22.057 20.9086 21.7882 21.3239 21.3576 21.7515C20.927 22.1821 20.5147 22.4509 19.9589 22.6738C18.3525 23.3121 14.5381 23.1685 12.7576 23.1685C10.9771 23.1685 7.15967 23.3121 5.55328 22.6769C4.99745 22.4539 4.58211 22.1852 4.15456 21.7546C3.72395 21.3239 3.4552 20.9117 3.23226 20.3558C2.59703 18.7464 2.74056 14.932 2.74056 13.1515C2.74056 11.371 2.59703 7.55356 3.23226 5.94717C3.4552 5.39135 3.72395 4.97601 4.15456 4.54845C4.58517 4.12089 4.99745 3.84909 5.55328 3.62615C7.15967 2.99092 10.9771 3.13446 12.7576 3.13446C14.5381 3.13446 18.3555 2.99092 19.9619 3.62615C20.5178 3.84909 20.9331 4.11784 21.3607 4.54845C21.7913 4.97906 22.06 5.39135 22.283 5.94717C22.9182 7.55356 22.7747 11.371 22.7747 13.1515C22.7747 14.932 22.9182 18.7464 22.2799 20.3528Z" fill="#292742"/>
</svg>
