<svg width="27" height="27" viewBox="0 0 27 27" fill="none" xmlns="http://www.w3.org/2000/svg">
<path d="M23.7993 7.28997C23.0206 7.62591 22.1731 7.86768 21.3002 7.96184C22.2065 7.42342 22.8852 6.57279 23.2089 5.56956C22.3585 6.07548 21.4268 6.43023 20.4552 6.61809C20.0492 6.18399 19.5581 5.83816 19.0125 5.60216C18.4669 5.36615 17.8786 5.24504 17.2842 5.24635C14.8792 5.24635 12.945 7.1958 12.945 9.58809C12.945 9.92402 12.9857 10.26 13.0519 10.5832C9.45074 10.3948 6.23898 8.67444 4.10374 6.04038C3.71467 6.70492 3.51079 7.46157 3.5133 8.23161C3.5133 9.73824 4.27934 11.0667 5.44749 11.848C4.75908 11.8209 4.08679 11.6317 3.48531 11.2958V11.3492C3.48531 13.459 4.97667 15.2074 6.9643 15.6095C6.5911 15.7065 6.20718 15.756 5.8216 15.7571C5.53911 15.7571 5.27188 15.7291 5.00212 15.691C5.55183 17.4114 7.15262 18.6609 9.05882 18.7017C7.56746 19.8698 5.69944 20.557 3.67109 20.557C3.30716 20.557 2.97122 20.5442 2.62256 20.5035C4.54656 21.7378 6.82941 22.4504 9.28786 22.4504C17.2689 22.4504 21.6361 15.8386 21.6361 10.0996C21.6361 9.9113 21.6361 9.72297 21.6234 9.53464C22.4683 8.91621 23.2089 8.15017 23.7993 7.28997Z" fill="#292742"/>
</svg>
