<svg width="15" height="18" viewBox="0 0 15 18" fill="none" xmlns="http://www.w3.org/2000/svg">
<path d="M3.162 1L1 4.098V14.941C1 15.3518 1.15185 15.7458 1.42216 16.0363C1.69246 16.3268 2.05907 16.49 2.44133 16.49H12.5307C12.9129 16.49 13.2795 16.3268 13.5498 16.0363C13.8201 15.7458 13.972 15.3518 13.972 14.941V4.098L11.81 1H3.162Z" stroke="black" stroke-width="1.5" stroke-linecap="round" stroke-linejoin="round"/>
<path d="M1 4.0979H13.972" stroke="black" stroke-width="1.5" stroke-linecap="round" stroke-linejoin="round"/>
<path d="M10.3684 7.19604C10.3684 8.01769 10.0647 8.80567 9.52411 9.38666C8.9835 9.96765 8.25028 10.294 7.48575 10.294C6.72122 10.294 5.98801 9.96765 5.4474 9.38666C4.9068 8.80567 4.60309 8.01769 4.60309 7.19604" stroke="black" stroke-width="1.5" stroke-linecap="round" stroke-linejoin="round"/>
</svg>
