<svg width="623" height="438" viewBox="0 0 623 438" fill="none" xmlns="http://www.w3.org/2000/svg">
<mask id="mask0_3503_3" style="mask-type:alpha" maskUnits="userSpaceOnUse" x="299" y="266" width="67" height="48">
<path d="M323.742 267.899C340.182 272.753 357.725 300.245 365.213 313.854C347.673 312.616 314.904 307.565 305.251 296.226C292.428 281.164 303.192 261.831 323.742 267.899Z" fill="#849A72"/>
</mask>
<g mask="url(#mask0_3503_3)">
<path d="M323.742 267.899C340.182 272.753 357.725 300.245 365.213 313.854C347.673 312.616 314.904 307.565 305.251 296.226C292.428 281.164 303.192 261.831 323.742 267.899Z" fill="#849A72"/>
<path d="M365.189 313.848C350.471 306.587 317.088 288.832 301.298 275.899" stroke="#145855" stroke-width="0.8" stroke-linecap="round" stroke-linejoin="round"/>
<path d="M319.901 267.287L323.594 290.796L309.127 299.148" stroke="#145855" stroke-width="0.8" stroke-linecap="round" stroke-linejoin="round"/>
<path d="M334.951 274.861L338.67 299.667L328.101 307.198" stroke="#145855" stroke-width="0.8" stroke-linecap="round" stroke-linejoin="round"/>
<path d="M349.601 290.266L352.167 307.05L345.185 311.081" stroke="#145855" stroke-width="0.8" stroke-linecap="round" stroke-linejoin="round"/>
</g>
<mask id="mask1_3503_3" style="mask-type:alpha" maskUnits="userSpaceOnUse" x="330" y="182" width="65" height="88">
<path d="M368.593 191.43C386.259 208.849 393.089 250.979 394.297 269.867C374.16 257.445 344.383 245.286 332.795 216.677C322.229 190.592 346.511 169.656 368.593 191.43Z" fill="#849A72"/>
</mask>
<g mask="url(#mask1_3503_3)">
<path d="M368.593 191.43C386.259 208.849 393.089 250.979 394.297 269.867C374.16 257.445 344.383 245.286 332.795 216.677C322.229 190.592 346.511 169.656 368.593 191.43Z" fill="#849A72"/>
<path d="M393.726 269.228C378.759 245.23 353.086 202.427 339.929 185.63" stroke="#145855" stroke-width="0.8" stroke-linecap="round" stroke-linejoin="round"/>
<path d="M381.482 212.554L372.4 234.784L350.77 241.61" stroke="#145855" stroke-width="0.8" stroke-linecap="round" stroke-linejoin="round"/>
<path d="M367.379 190.801L358.522 212.36L333.205 215.764" stroke="#145855" stroke-width="0.8" stroke-linecap="round" stroke-linejoin="round"/>
<path d="M389.118 238.201L383.839 253.091L371.632 256.623" stroke="#145855" stroke-width="0.8" stroke-linecap="round" stroke-linejoin="round"/>
</g>
<mask id="mask2_3503_3" style="mask-type:alpha" maskUnits="userSpaceOnUse" x="400" y="141" width="47" height="102">
<path d="M446.564 167.985C445.747 194.574 428.944 228.839 420.644 242.647C410.896 223.608 393.814 180.343 403.474 159.592C415.55 133.654 447.585 134.747 446.564 167.985Z" fill="#849A72"/>
</mask>
<g mask="url(#mask2_3503_3)">
<path d="M446.564 167.985C445.747 194.574 428.944 228.839 420.644 242.647C410.896 223.608 393.814 180.343 403.474 159.592C415.55 133.654 447.585 134.747 446.564 167.985Z" fill="#849A72"/>
<path d="M420.706 243.375C421.176 216.43 423.585 157.708 429.461 138.381" stroke="#145855" stroke-width="0.8" stroke-linecap="round" stroke-linejoin="round"/>
<path d="M405.768 208.578L421.519 219.699L436.681 210.946" stroke="#145855" stroke-width="0.8" stroke-linecap="round" stroke-linejoin="round"/>
<path d="M400.505 183.317L422.597 198.916L447.367 184.615" stroke="#145855" stroke-width="0.8" stroke-linecap="round" stroke-linejoin="round"/>
<path d="M404.165 153.557L424.435 172.246L449.529 157.758" stroke="#145855" stroke-width="0.8" stroke-linecap="round" stroke-linejoin="round"/>
</g>
<mask id="mask3_3503_3" style="mask-type:alpha" maskUnits="userSpaceOnUse" x="460" y="140" width="108" height="73">
<path d="M533.609 141.671C502.009 148.484 471.874 192.016 460.757 212.93C479.956 213.545 524.38 210.365 548.484 192.721C578.615 170.666 573.11 133.154 533.609 141.671Z" fill="#849A72"/>
</mask>
<g mask="url(#mask3_3503_3)">
<path d="M533.609 141.671C502.009 148.484 471.874 192.016 460.757 212.93C479.956 213.545 524.38 210.365 548.484 192.721C578.615 170.666 573.11 133.154 533.609 141.671Z" fill="#849A72"/>
<path d="M568.131 149.959C539.183 161.011 469.416 205.405 458.464 215.146" stroke="#145855" stroke-width="0.8" stroke-linecap="round" stroke-linejoin="round"/>
<path d="M480.469 178.404L482.126 198.566L500.088 212.386" stroke="#145855" stroke-width="0.8" stroke-linecap="round" stroke-linejoin="round"/>
<path d="M501.502 158.275L504.48 184.491L532.375 202.789" stroke="#145855" stroke-width="0.8" stroke-linecap="round" stroke-linejoin="round"/>
<path d="M525.833 140.353L527.504 170.459L558.1 185.961" stroke="#145855" stroke-width="0.8" stroke-linecap="round" stroke-linejoin="round"/>
</g>
<mask id="mask4_3503_3" style="mask-type:alpha" maskUnits="userSpaceOnUse" x="439" y="223" width="96" height="52">
<path d="M517.17 232.35C494.614 219.029 456.162 223.509 439.756 227.414C449.835 240.255 476.692 267.434 503.482 273.419C536.968 280.901 545.367 249.001 517.17 232.35Z" fill="#849A72"/>
</mask>
<g mask="url(#mask4_3503_3)">
<path d="M517.17 232.35C494.614 219.029 456.162 223.509 439.756 227.414C449.835 240.255 476.692 267.434 503.482 273.419C536.968 280.901 545.367 249.001 517.17 232.35Z" fill="#849A72"/>
<path d="M439.195 226.624C462.261 235.983 513.665 256.645 536.162 261.979" stroke="#145855" stroke-width="0.8" stroke-linecap="round" stroke-linejoin="round"/>
<path d="M474.146 221.135L458.914 234.166L463.437 253.646" stroke="#145855" stroke-width="0.8" stroke-linecap="round" stroke-linejoin="round"/>
<path d="M498.385 224.115L480.57 242.452L489.34 270.039" stroke="#145855" stroke-width="0.8" stroke-linecap="round" stroke-linejoin="round"/>
<path d="M522.784 233.063L506.052 252.116L515.298 275.84" stroke="#145855" stroke-width="0.8" stroke-linecap="round" stroke-linejoin="round"/>
</g>
<mask id="mask5_3503_3" style="mask-type:alpha" maskUnits="userSpaceOnUse" x="404" y="259" width="84" height="73">
<path d="M474.478 284.374C453.279 267.113 419.176 260.305 404.775 259.059C410.353 275.58 427.889 312.315 453.409 327.082C485.309 345.54 500.977 305.95 474.478 284.374Z" fill="#849A72"/>
</mask>
<g mask="url(#mask5_3503_3)">
<path d="M474.478 284.374C453.279 267.113 419.176 260.305 404.775 259.059C410.353 275.58 427.889 312.315 453.409 327.082C485.309 345.54 500.977 305.95 474.478 284.374Z" fill="#849A72"/>
<path d="M403.573 257.736C423.948 275.488 469.581 313.285 489.106 322.463" stroke="#145855" stroke-width="0.8" stroke-linecap="round" stroke-linejoin="round"/>
<path d="M439.7 263.974L421.146 272.587L421.296 295.91" stroke="#145855" stroke-width="0.8" stroke-linecap="round" stroke-linejoin="round"/>
<path d="M467.771 277.047L441.99 289.742L441.392 320.461" stroke="#145855" stroke-width="0.8" stroke-linecap="round" stroke-linejoin="round"/>
</g>
<mask id="mask6_3503_3" style="mask-type:alpha" maskUnits="userSpaceOnUse" x="375" y="297" width="43" height="37">
<path d="M412.657 314.028C403.802 304.197 383.959 299.199 375.144 297.929C376.667 304.469 385.545 321.523 396.757 329.169C413.801 340.791 423.727 326.317 412.657 314.028Z" fill="#849A72"/>
</mask>
<g mask="url(#mask6_3503_3)">
<path d="M412.657 314.028C403.802 304.197 383.959 299.199 375.144 297.929C376.667 304.469 385.545 321.523 396.757 329.169C413.801 340.791 423.727 326.317 412.657 314.028Z" fill="#849A72"/>
<path d="M374.093 297.17C381.67 304.68 400.928 321.826 417.346 330.335" stroke="#145855" stroke-width="0.8" stroke-linecap="round" stroke-linejoin="round"/>
<path d="M397.848 303.398L386.83 308.79L387.17 321.616" stroke="#145855" stroke-width="0.8" stroke-linecap="round" stroke-linejoin="round"/>
<path d="M411.053 311.152L399.104 318.051L399.241 331.965" stroke="#145855" stroke-width="0.8" stroke-linecap="round" stroke-linejoin="round"/>
</g>
<path d="M339.141 394.713C350.494 331.873 380.909 261.793 462.526 211.903" stroke="#849A72" stroke-width="1.5" stroke-linecap="round" stroke-linejoin="round"/>
<mask id="mask7_3503_3" style="mask-type:alpha" maskUnits="userSpaceOnUse" x="272" y="382" width="65" height="35">
<path d="M296.174 384.346C316.006 391.329 331.247 406.768 336.501 414.417C327.74 416.245 311.965 417.695 290.74 412.223C264.208 405.384 267.293 374.177 296.174 384.346Z" fill="#849A72"/>
</mask>
<g mask="url(#mask7_3503_3)">
<path d="M296.174 384.346C316.006 391.329 331.247 406.768 336.501 414.417C327.74 416.245 311.965 417.695 290.74 412.223C264.208 405.384 267.293 374.177 296.174 384.346Z" fill="#849A72"/>
<path d="M335.135 414.172C317.431 408.508 279.197 395.472 267.899 388.641" stroke="#145855" stroke-width="0.8" stroke-linecap="round" stroke-linejoin="round"/>
<path d="M285.03 379.662L291.508 399.019L276.534 407.664" stroke="#145855" stroke-width="0.8" stroke-linecap="round" stroke-linejoin="round"/>
<path d="M304.476 384.817L306.923 404L290.321 413.585" stroke="#145855" stroke-width="0.8" stroke-linecap="round" stroke-linejoin="round"/>
</g>
<mask id="mask8_3503_3" style="mask-type:alpha" maskUnits="userSpaceOnUse" x="343" y="360" width="53" height="25">
<path d="M377.483 360.99C363.556 362.727 349.356 370.455 343.997 374.102C351.074 379.416 373.434 389.294 386.306 382.857C402.397 374.811 394.892 358.818 377.483 360.99Z" fill="#849A72"/>
</mask>
<g mask="url(#mask8_3503_3)">
<path d="M377.483 360.99C363.556 362.727 349.356 370.455 343.997 374.102C351.074 379.416 373.434 389.294 386.306 382.857C402.397 374.811 394.892 358.818 377.483 360.99Z" fill="#849A72"/>
<path d="M343.282 373.519C355.119 373.426 382.468 372.934 397.174 371.705" stroke="#145855" stroke-width="0.8" stroke-linecap="round" stroke-linejoin="round"/>
<path d="M366.932 362.244L359.339 373.081L367.712 385.403" stroke="#145855" stroke-width="0.8" stroke-linecap="round" stroke-linejoin="round"/>
</g>
<mask id="mask9_3503_3" style="mask-type:alpha" maskUnits="userSpaceOnUse" x="73" y="324" width="35" height="33">
<path d="M75.6824 340.641C80.8586 332.178 98.8549 326.489 107.585 324.341C104.265 333.961 96.5329 351.524 88.7484 355.221C78.4073 360.133 69.2123 351.22 75.6824 340.641Z" fill="#849A72"/>
</mask>
<g mask="url(#mask9_3503_3)">
<path d="M75.6824 340.641C80.8586 332.178 98.8549 326.489 107.585 324.341C104.265 333.961 96.5329 351.524 88.7484 355.221C78.4073 360.133 69.2123 351.22 75.6824 340.641Z" fill="#849A72"/>
<path d="M107.577 324.354C101.314 331.494 86.388 347.496 76.7928 354.386" stroke="#145855" stroke-width="0.8" stroke-linecap="round" stroke-linejoin="round"/>
<path d="M74.7652 342.697L88.4601 344.154L90.9624 353.492" stroke="#145855" stroke-width="0.8" stroke-linecap="round" stroke-linejoin="round"/>
<path d="M81.2535 335.418L95.6777 337.055L98.3049 344.091" stroke="#145855" stroke-width="0.8" stroke-linecap="round" stroke-linejoin="round"/>
<path d="M92.0596 329.536L101.827 330.615L103.034 335.122" stroke="#145855" stroke-width="0.8" stroke-linecap="round" stroke-linejoin="round"/>
</g>
<mask id="mask10_3503_3" style="mask-type:alpha" maskUnits="userSpaceOnUse" x="31" y="299" width="57" height="30">
<path d="M39.6525 304.114C52.0362 296.847 76.6113 299.34 87.3509 301.494C77.3909 310.89 66.1331 325.715 48.4041 327.908C32.2392 329.907 24.1729 313.197 39.6525 304.114Z" fill="#849A72"/>
</mask>
<g mask="url(#mask10_3503_3)">
<path d="M39.6525 304.114C52.0362 296.847 76.6113 299.34 87.3509 301.494C77.3909 310.89 66.1331 325.715 48.4041 327.908C32.2392 329.907 24.1729 313.197 39.6525 304.114Z" fill="#849A72"/>
<path d="M86.9087 301.717C71.2511 306.49 43.4775 314.43 32.1164 319.269" stroke="#145855" stroke-width="0.8" stroke-linecap="round" stroke-linejoin="round"/>
<path d="M53.3921 300.073L64.4588 308.48L65.0347 321.594" stroke="#145855" stroke-width="0.8" stroke-linecap="round" stroke-linejoin="round"/>
<path d="M39.1192 304.698L49.8443 312.879L47.9552 327.542" stroke="#145855" stroke-width="0.8" stroke-linecap="round" stroke-linejoin="round"/>
<path d="M68.8732 299.646L76.4062 304.827L76.5522 312.18" stroke="#145855" stroke-width="0.8" stroke-linecap="round" stroke-linejoin="round"/>
</g>
<mask id="mask11_3503_3" style="mask-type:alpha" maskUnits="userSpaceOnUse" x="20" y="255" width="57" height="31">
<path d="M38.2252 257.014C52.9673 261.454 69.6049 275.98 76.081 282.688C63.9776 285.285 37.2325 288.354 27.0794 279.845C14.388 269.21 19.7976 251.465 38.2252 257.014Z" fill="#849A72"/>
</mask>
<g mask="url(#mask11_3503_3)">
<path d="M38.2252 257.014C52.9673 261.454 69.6049 275.98 76.081 282.688C63.9776 285.285 37.2325 288.354 27.0794 279.845C14.388 269.21 19.7976 251.465 38.2252 257.014Z" fill="#849A72"/>
<path d="M76.4973 282.762C61.5048 278.463 29.0386 268.321 19.1144 262.141" stroke="#145855" stroke-width="0.8" stroke-linecap="round" stroke-linejoin="round"/>
<path d="M54.8075 285.9L63.3838 278.761L60.7614 268.974" stroke="#145855" stroke-width="0.8" stroke-linecap="round" stroke-linejoin="round"/>
<path d="M39.8977 285.059L51.9267 275.045L47.6424 259.056" stroke="#145855" stroke-width="0.8" stroke-linecap="round" stroke-linejoin="round"/>
<path d="M23.8092 278.555L37.2928 270.023L32.9523 253.825" stroke="#145855" stroke-width="0.8" stroke-linecap="round" stroke-linejoin="round"/>
</g>
<mask id="mask12_3503_3" style="mask-type:alpha" maskUnits="userSpaceOnUse" x="36" y="187" width="35" height="69">
<path d="M36.554 204.412C35.6294 223.098 55.4507 246.465 65.477 255.813C68.6968 245.172 73.5732 219.861 67.3203 203.743C59.5042 183.596 37.7096 181.055 36.554 204.412Z" fill="#849A72"/>
</mask>
<g mask="url(#mask12_3503_3)">
<path d="M36.554 204.412C35.6294 223.098 55.4507 246.465 65.477 255.813C68.6968 245.172 73.5732 219.861 67.3203 203.743C59.5042 183.596 37.7096 181.055 36.554 204.412Z" fill="#849A72"/>
<path d="M46.358 186.355C48.2003 204.193 62.5673 249.844 66.3722 257.426" stroke="#145855" stroke-width="0.8" stroke-linecap="round" stroke-linejoin="round"/>
<path d="M49.129 239.621L60.648 241.714L71.0641 233.743" stroke="#145855" stroke-width="0.8" stroke-linecap="round" stroke-linejoin="round"/>
<path d="M41.0266 224.848L56.1279 227.11L70.5352 214.257" stroke="#145855" stroke-width="0.8" stroke-linecap="round" stroke-linejoin="round"/>
<path d="M34.6524 208.562L51.7327 212.137L64.9816 197.356" stroke="#145855" stroke-width="0.8" stroke-linecap="round" stroke-linejoin="round"/>
</g>
<mask id="mask13_3503_3" style="mask-type:alpha" maskUnits="userSpaceOnUse" x="70" y="220" width="39" height="50">
<path d="M84.7835 227.185C73.9577 237.799 70.7024 259.966 70.428 269.722C79.1164 266.011 98.333 255.068 105.692 240.989C114.89 223.389 98.3156 213.916 84.7835 227.185Z" fill="#849A72"/>
</mask>
<g mask="url(#mask13_3503_3)">
<path d="M84.7835 227.185C73.9577 237.799 70.7024 259.966 70.428 269.722C79.1164 266.011 98.333 255.068 105.692 240.989C114.89 223.389 98.3156 213.916 84.7835 227.185Z" fill="#849A72"/>
<path d="M69.9022 269.917C78.5893 258.425 97.8398 232.783 104.192 221.006" stroke="#145855" stroke-width="0.8" stroke-linecap="round" stroke-linejoin="round"/>
<path d="M72.0696 249.556L77.0721 260.024L88.6399 260.413" stroke="#145855" stroke-width="0.8" stroke-linecap="round" stroke-linejoin="round"/>
<path d="M77.3661 236.453L84.9484 249.159L101.684 248.388" stroke="#145855" stroke-width="0.8" stroke-linecap="round" stroke-linejoin="round"/>
<path d="M86.023 224.153L94.1675 236.361L108.815 234.746" stroke="#145855" stroke-width="0.8" stroke-linecap="round" stroke-linejoin="round"/>
</g>
<mask id="mask14_3503_3" style="mask-type:alpha" maskUnits="userSpaceOnUse" x="82" y="254" width="52" height="41">
<path d="M107.471 258.844C94.6463 268.109 85.7326 286.154 82.8788 294.018C92.9501 293.374 116.112 289.073 128.19 277.019C143.287 261.951 123.502 247.262 107.471 258.844Z" fill="#849A72"/>
</mask>
<g mask="url(#mask14_3503_3)">
<path d="M107.471 258.844C94.6463 268.109 85.7326 286.154 82.8788 294.018C92.9501 293.374 116.112 289.073 128.19 277.019C143.287 261.951 123.502 247.262 107.471 258.844Z" fill="#849A72"/>
<path d="M81.9591 294.491C94.9346 285.76 122.9 265.912 130.955 256.372" stroke="#145855" stroke-width="0.8" stroke-linecap="round" stroke-linejoin="round"/>
<path d="M90.858 275.229L92.8936 286.892L105.954 290.302" stroke="#145855" stroke-width="0.8" stroke-linecap="round" stroke-linejoin="round"/>
<path d="M102.371 261.496L105.606 277.809L122.689 282.745" stroke="#145855" stroke-width="0.8" stroke-linecap="round" stroke-linejoin="round"/>
</g>
<mask id="mask15_3503_3" style="mask-type:alpha" maskUnits="userSpaceOnUse" x="100" y="296" width="26" height="21">
<path d="M114.789 297.845C107.966 301.323 102.2 311.667 100.17 316.404C104.053 316.532 114.917 314.124 120.871 309.001C129.921 301.214 123.316 293.497 114.789 297.845Z" fill="#849A72"/>
</mask>
<g mask="url(#mask15_3503_3)">
<path d="M114.789 297.845C107.966 301.323 102.2 311.667 100.17 316.404C104.053 316.532 114.917 314.124 120.871 309.001C129.921 301.214 123.316 293.497 114.789 297.845Z" fill="#849A72"/>
<path d="M99.5878 316.878C104.921 313.767 117.391 305.57 124.607 297.666" stroke="#145855" stroke-width="0.8" stroke-linecap="round" stroke-linejoin="round"/>
<path d="M106.628 304.531L107.991 311.498L115.213 313.229" stroke="#145855" stroke-width="0.8" stroke-linecap="round" stroke-linejoin="round"/>
<path d="M112.94 298.311L115.007 306.024L122.806 308.032" stroke="#145855" stroke-width="0.8" stroke-linecap="round" stroke-linejoin="round"/>
</g>
<path d="M148.882 351.028C115.453 335.269 80.8323 307.768 65.1678 254.669" stroke="#849A72" stroke-width="1.5" stroke-linecap="round" stroke-linejoin="round"/>
<mask id="mask16_3503_3" style="mask-type:alpha" maskUnits="userSpaceOnUse" x="133" y="355" width="27" height="34">
<path d="M136.65 373.495C143.524 363.454 154.438 357.247 159.501 355.455C159.21 360.627 157.658 369.662 151.42 380.708C143.623 394.516 126.639 388.117 136.65 373.495Z" fill="#849A72"/>
</mask>
<g mask="url(#mask16_3503_3)">
<path d="M136.65 373.495C143.524 363.454 154.438 357.247 159.501 355.455C159.21 360.627 157.658 369.662 151.42 380.708C143.623 394.516 126.639 388.117 136.65 373.495Z" fill="#849A72"/>
<path d="M159.159 356.182C153.341 365.231 140.327 384.652 134.815 389.945" stroke="#145855" stroke-width="0.8" stroke-linecap="round" stroke-linejoin="round"/>
<path d="M132.362 379.023L144.154 378.301L146.743 387.967" stroke="#145855" stroke-width="0.8" stroke-linecap="round" stroke-linejoin="round"/>
<path d="M138.157 368.924L149.247 370.43L152.119 381.147" stroke="#145855" stroke-width="0.8" stroke-linecap="round" stroke-linejoin="round"/>
</g>
<mask id="mask17_3503_3" style="mask-type:alpha" maskUnits="userSpaceOnUse" x="135" y="316" width="15" height="30">
<path d="M135.773 324.542C134.658 332.588 136.851 341.684 138.087 345.226C142.118 342.066 150.989 331.046 149.319 322.886C147.231 312.685 137.166 314.485 135.773 324.542Z" fill="#849A72"/>
</mask>
<g mask="url(#mask17_3503_3)">
<path d="M135.773 324.542C134.658 332.588 136.851 341.684 138.087 345.226C142.118 342.066 150.989 331.046 149.319 322.886C147.231 312.685 137.166 314.485 135.773 324.542Z" fill="#849A72"/>
<path d="M137.654 345.539C139.375 338.908 143.196 323.545 144.712 315.14" stroke="#145855" stroke-width="0.8" stroke-linecap="round" stroke-linejoin="round"/>
<path d="M134.893 330.629L139.814 336.497L147.956 333.662" stroke="#145855" stroke-width="0.8" stroke-linecap="round" stroke-linejoin="round"/>
</g>
<path opacity="0.1" d="M295 7.20992C296.657 7.20992 298 5.76644 298 3.98582C298 2.2052 296.657 0.761719 295 0.761719C293.343 0.761719 292 2.2052 292 3.98582C292 5.76644 293.343 7.20992 295 7.20992Z" fill="#3B4C68"/>
<path opacity="0.1" d="M321 7.20992C322.657 7.20992 324 5.76644 324 3.98582C324 2.2052 322.657 0.761719 321 0.761719C319.343 0.761719 318 2.2052 318 3.98582C318 5.76644 319.343 7.20992 321 7.20992Z" fill="#3B4C68"/>
<path opacity="0.1" d="M347 7.20992C348.657 7.20992 350 5.76644 350 3.98582C350 2.2052 348.657 0.761719 347 0.761719C345.343 0.761719 344 2.2052 344 3.98582C344 5.76644 345.343 7.20992 347 7.20992Z" fill="#3B4C68"/>
<path opacity="0.1" d="M373 7.20992C374.657 7.20992 376 5.76644 376 3.98582C376 2.2052 374.657 0.761719 373 0.761719C371.343 0.761719 370 2.2052 370 3.98582C370 5.76644 371.343 7.20992 373 7.20992Z" fill="#3B4C68"/>
<path opacity="0.1" d="M399 7.20992C400.657 7.20992 402 5.76644 402 3.98582C402 2.2052 400.657 0.761719 399 0.761719C397.343 0.761719 396 2.2052 396 3.98582C396 5.76644 397.343 7.20992 399 7.20992Z" fill="#3B4C68"/>
<path opacity="0.1" d="M425 7.20992C426.657 7.20992 428 5.76644 428 3.98582C428 2.2052 426.657 0.761719 425 0.761719C423.343 0.761719 422 2.2052 422 3.98582C422 5.76644 423.343 7.20992 425 7.20992Z" fill="#3B4C68"/>
<path opacity="0.1" d="M451 7.20992C452.657 7.20992 454 5.76644 454 3.98582C454 2.2052 452.657 0.761719 451 0.761719C449.343 0.761719 448 2.2052 448 3.98582C448 5.76644 449.343 7.20992 451 7.20992Z" fill="#3B4C68"/>
<path opacity="0.1" d="M477 7.20992C478.657 7.20992 480 5.76644 480 3.98582C480 2.2052 478.657 0.761719 477 0.761719C475.343 0.761719 474 2.2052 474 3.98582C474 5.76644 475.343 7.20992 477 7.20992Z" fill="#3B4C68"/>
<path opacity="0.1" d="M503 7.20992C504.657 7.20992 506 5.76644 506 3.98582C506 2.2052 504.657 0.761719 503 0.761719C501.343 0.761719 500 2.2052 500 3.98582C500 5.76644 501.343 7.20992 503 7.20992Z" fill="#3B4C68"/>
<path opacity="0.1" d="M529 7.20992C530.657 7.20992 532 5.76644 532 3.98582C532 2.2052 530.657 0.761719 529 0.761719C527.343 0.761719 526 2.2052 526 3.98582C526 5.76644 527.343 7.20992 529 7.20992Z" fill="#3B4C68"/>
<path opacity="0.1" d="M555 7.20992C556.657 7.20992 558 5.76644 558 3.98582C558 2.2052 556.657 0.761719 555 0.761719C553.343 0.761719 552 2.2052 552 3.98582C552 5.76644 553.343 7.20992 555 7.20992Z" fill="#3B4C68"/>
<path opacity="0.1" d="M581 7.20992C582.657 7.20992 584 5.76644 584 3.98582C584 2.2052 582.657 0.761719 581 0.761719C579.343 0.761719 578 2.2052 578 3.98582C578 5.76644 579.343 7.20992 581 7.20992Z" fill="#3B4C68"/>
<path opacity="0.1" d="M607 7.20992C608.657 7.20992 610 5.76644 610 3.98582C610 2.2052 608.657 0.761719 607 0.761719C605.343 0.761719 604 2.2052 604 3.98582C604 5.76644 605.343 7.20992 607 7.20992Z" fill="#3B4C68"/>
<path opacity="0.1" d="M295 35.1521C296.657 35.1521 298 33.7086 298 31.928C298 30.1473 296.657 28.7039 295 28.7039C293.343 28.7039 292 30.1473 292 31.928C292 33.7086 293.343 35.1521 295 35.1521Z" fill="#3B4C68"/>
<path opacity="0.1" d="M321 35.1521C322.657 35.1521 324 33.7086 324 31.928C324 30.1473 322.657 28.7039 321 28.7039C319.343 28.7039 318 30.1473 318 31.928C318 33.7086 319.343 35.1521 321 35.1521Z" fill="#3B4C68"/>
<path opacity="0.1" d="M347 35.1521C348.657 35.1521 350 33.7086 350 31.928C350 30.1473 348.657 28.7039 347 28.7039C345.343 28.7039 344 30.1473 344 31.928C344 33.7086 345.343 35.1521 347 35.1521Z" fill="#3B4C68"/>
<path opacity="0.1" d="M373 35.1521C374.657 35.1521 376 33.7086 376 31.928C376 30.1473 374.657 28.7039 373 28.7039C371.343 28.7039 370 30.1473 370 31.928C370 33.7086 371.343 35.1521 373 35.1521Z" fill="#3B4C68"/>
<path opacity="0.1" d="M399 35.1521C400.657 35.1521 402 33.7086 402 31.928C402 30.1473 400.657 28.7039 399 28.7039C397.343 28.7039 396 30.1473 396 31.928C396 33.7086 397.343 35.1521 399 35.1521Z" fill="#3B4C68"/>
<path opacity="0.1" d="M425 35.1521C426.657 35.1521 428 33.7086 428 31.928C428 30.1473 426.657 28.7039 425 28.7039C423.343 28.7039 422 30.1473 422 31.928C422 33.7086 423.343 35.1521 425 35.1521Z" fill="#3B4C68"/>
<path opacity="0.1" d="M451 35.1521C452.657 35.1521 454 33.7086 454 31.928C454 30.1473 452.657 28.7039 451 28.7039C449.343 28.7039 448 30.1473 448 31.928C448 33.7086 449.343 35.1521 451 35.1521Z" fill="#3B4C68"/>
<path opacity="0.1" d="M477 35.1521C478.657 35.1521 480 33.7086 480 31.928C480 30.1473 478.657 28.7039 477 28.7039C475.343 28.7039 474 30.1473 474 31.928C474 33.7086 475.343 35.1521 477 35.1521Z" fill="#3B4C68"/>
<path opacity="0.1" d="M503 35.1521C504.657 35.1521 506 33.7086 506 31.928C506 30.1473 504.657 28.7039 503 28.7039C501.343 28.7039 500 30.1473 500 31.928C500 33.7086 501.343 35.1521 503 35.1521Z" fill="#3B4C68"/>
<path opacity="0.1" d="M529 35.1521C530.657 35.1521 532 33.7086 532 31.928C532 30.1473 530.657 28.7039 529 28.7039C527.343 28.7039 526 30.1473 526 31.928C526 33.7086 527.343 35.1521 529 35.1521Z" fill="#3B4C68"/>
<path opacity="0.1" d="M555 35.1521C556.657 35.1521 558 33.7086 558 31.928C558 30.1473 556.657 28.7039 555 28.7039C553.343 28.7039 552 30.1473 552 31.928C552 33.7086 553.343 35.1521 555 35.1521Z" fill="#3B4C68"/>
<path opacity="0.1" d="M581 35.1521C582.657 35.1521 584 33.7086 584 31.928C584 30.1473 582.657 28.7039 581 28.7039C579.343 28.7039 578 30.1473 578 31.928C578 33.7086 579.343 35.1521 581 35.1521Z" fill="#3B4C68"/>
<path opacity="0.1" d="M607 35.1521C608.657 35.1521 610 33.7086 610 31.928C610 30.1473 608.657 28.7039 607 28.7039C605.343 28.7039 604 30.1473 604 31.928C604 33.7086 605.343 35.1521 607 35.1521Z" fill="#3B4C68"/>
<path opacity="0.1" d="M295 63.0942C296.657 63.0942 298 61.6507 298 59.8701C298 58.0895 296.657 56.646 295 56.646C293.343 56.646 292 58.0895 292 59.8701C292 61.6507 293.343 63.0942 295 63.0942Z" fill="#3B4C68"/>
<path opacity="0.1" d="M321 63.0942C322.657 63.0942 324 61.6507 324 59.8701C324 58.0895 322.657 56.646 321 56.646C319.343 56.646 318 58.0895 318 59.8701C318 61.6507 319.343 63.0942 321 63.0942Z" fill="#3B4C68"/>
<path opacity="0.1" d="M347 63.0942C348.657 63.0942 350 61.6507 350 59.8701C350 58.0895 348.657 56.646 347 56.646C345.343 56.646 344 58.0895 344 59.8701C344 61.6507 345.343 63.0942 347 63.0942Z" fill="#3B4C68"/>
<path opacity="0.1" d="M373 63.0942C374.657 63.0942 376 61.6507 376 59.8701C376 58.0895 374.657 56.646 373 56.646C371.343 56.646 370 58.0895 370 59.8701C370 61.6507 371.343 63.0942 373 63.0942Z" fill="#3B4C68"/>
<path opacity="0.1" d="M399 63.0942C400.657 63.0942 402 61.6507 402 59.8701C402 58.0895 400.657 56.646 399 56.646C397.343 56.646 396 58.0895 396 59.8701C396 61.6507 397.343 63.0942 399 63.0942Z" fill="#3B4C68"/>
<path opacity="0.1" d="M425 63.0942C426.657 63.0942 428 61.6507 428 59.8701C428 58.0895 426.657 56.646 425 56.646C423.343 56.646 422 58.0895 422 59.8701C422 61.6507 423.343 63.0942 425 63.0942Z" fill="#3B4C68"/>
<path opacity="0.1" d="M451 63.0942C452.657 63.0942 454 61.6507 454 59.8701C454 58.0895 452.657 56.646 451 56.646C449.343 56.646 448 58.0895 448 59.8701C448 61.6507 449.343 63.0942 451 63.0942Z" fill="#3B4C68"/>
<path opacity="0.1" d="M477 63.0942C478.657 63.0942 480 61.6507 480 59.8701C480 58.0895 478.657 56.646 477 56.646C475.343 56.646 474 58.0895 474 59.8701C474 61.6507 475.343 63.0942 477 63.0942Z" fill="#3B4C68"/>
<path opacity="0.1" d="M503 63.0942C504.657 63.0942 506 61.6507 506 59.8701C506 58.0895 504.657 56.646 503 56.646C501.343 56.646 500 58.0895 500 59.8701C500 61.6507 501.343 63.0942 503 63.0942Z" fill="#3B4C68"/>
<path opacity="0.1" d="M529 63.0942C530.657 63.0942 532 61.6507 532 59.8701C532 58.0895 530.657 56.646 529 56.646C527.343 56.646 526 58.0895 526 59.8701C526 61.6507 527.343 63.0942 529 63.0942Z" fill="#3B4C68"/>
<path opacity="0.1" d="M555 63.0942C556.657 63.0942 558 61.6507 558 59.8701C558 58.0895 556.657 56.646 555 56.646C553.343 56.646 552 58.0895 552 59.8701C552 61.6507 553.343 63.0942 555 63.0942Z" fill="#3B4C68"/>
<path opacity="0.1" d="M581 63.0942C582.657 63.0942 584 61.6507 584 59.8701C584 58.0895 582.657 56.646 581 56.646C579.343 56.646 578 58.0895 578 59.8701C578 61.6507 579.343 63.0942 581 63.0942Z" fill="#3B4C68"/>
<path opacity="0.1" d="M607 63.0942C608.657 63.0942 610 61.6507 610 59.8701C610 58.0895 608.657 56.646 607 56.646C605.343 56.646 604 58.0895 604 59.8701C604 61.6507 605.343 63.0942 607 63.0942Z" fill="#3B4C68"/>
<path opacity="0.1" d="M295 91.0366C296.657 91.0366 298 89.5931 298 87.8125C298 86.0319 296.657 84.5884 295 84.5884C293.343 84.5884 292 86.0319 292 87.8125C292 89.5931 293.343 91.0366 295 91.0366Z" fill="#3B4C68"/>
<path opacity="0.1" d="M321 91.0366C322.657 91.0366 324 89.5931 324 87.8125C324 86.0319 322.657 84.5884 321 84.5884C319.343 84.5884 318 86.0319 318 87.8125C318 89.5931 319.343 91.0366 321 91.0366Z" fill="#3B4C68"/>
<path opacity="0.1" d="M347 91.0366C348.657 91.0366 350 89.5931 350 87.8125C350 86.0319 348.657 84.5884 347 84.5884C345.343 84.5884 344 86.0319 344 87.8125C344 89.5931 345.343 91.0366 347 91.0366Z" fill="#3B4C68"/>
<path opacity="0.1" d="M373 91.0366C374.657 91.0366 376 89.5931 376 87.8125C376 86.0319 374.657 84.5884 373 84.5884C371.343 84.5884 370 86.0319 370 87.8125C370 89.5931 371.343 91.0366 373 91.0366Z" fill="#3B4C68"/>
<path opacity="0.1" d="M399 91.0366C400.657 91.0366 402 89.5931 402 87.8125C402 86.0319 400.657 84.5884 399 84.5884C397.343 84.5884 396 86.0319 396 87.8125C396 89.5931 397.343 91.0366 399 91.0366Z" fill="#3B4C68"/>
<path opacity="0.1" d="M425 91.0366C426.657 91.0366 428 89.5931 428 87.8125C428 86.0319 426.657 84.5884 425 84.5884C423.343 84.5884 422 86.0319 422 87.8125C422 89.5931 423.343 91.0366 425 91.0366Z" fill="#3B4C68"/>
<path opacity="0.1" d="M451 91.0366C452.657 91.0366 454 89.5931 454 87.8125C454 86.0319 452.657 84.5884 451 84.5884C449.343 84.5884 448 86.0319 448 87.8125C448 89.5931 449.343 91.0366 451 91.0366Z" fill="#3B4C68"/>
<path opacity="0.1" d="M477 91.0366C478.657 91.0366 480 89.5931 480 87.8125C480 86.0319 478.657 84.5884 477 84.5884C475.343 84.5884 474 86.0319 474 87.8125C474 89.5931 475.343 91.0366 477 91.0366Z" fill="#3B4C68"/>
<path opacity="0.1" d="M503 91.0366C504.657 91.0366 506 89.5931 506 87.8125C506 86.0319 504.657 84.5884 503 84.5884C501.343 84.5884 500 86.0319 500 87.8125C500 89.5931 501.343 91.0366 503 91.0366Z" fill="#3B4C68"/>
<path opacity="0.1" d="M529 91.0366C530.657 91.0366 532 89.5931 532 87.8125C532 86.0319 530.657 84.5884 529 84.5884C527.343 84.5884 526 86.0319 526 87.8125C526 89.5931 527.343 91.0366 529 91.0366Z" fill="#3B4C68"/>
<path opacity="0.1" d="M555 91.0366C556.657 91.0366 558 89.5931 558 87.8125C558 86.0319 556.657 84.5884 555 84.5884C553.343 84.5884 552 86.0319 552 87.8125C552 89.5931 553.343 91.0366 555 91.0366Z" fill="#3B4C68"/>
<path opacity="0.1" d="M581 91.0366C582.657 91.0366 584 89.5931 584 87.8125C584 86.0319 582.657 84.5884 581 84.5884C579.343 84.5884 578 86.0319 578 87.8125C578 89.5931 579.343 91.0366 581 91.0366Z" fill="#3B4C68"/>
<path opacity="0.1" d="M607 91.0366C608.657 91.0366 610 89.5931 610 87.8125C610 86.0319 608.657 84.5884 607 84.5884C605.343 84.5884 604 86.0319 604 87.8125C604 89.5931 605.343 91.0366 607 91.0366Z" fill="#3B4C68"/>
<path opacity="0.1" d="M295 118.979C296.657 118.979 298 117.535 298 115.755C298 113.974 296.657 112.531 295 112.531C293.343 112.531 292 113.974 292 115.755C292 117.535 293.343 118.979 295 118.979Z" fill="#3B4C68"/>
<path opacity="0.1" d="M321 118.979C322.657 118.979 324 117.535 324 115.755C324 113.974 322.657 112.531 321 112.531C319.343 112.531 318 113.974 318 115.755C318 117.535 319.343 118.979 321 118.979Z" fill="#3B4C68"/>
<path opacity="0.1" d="M347 118.979C348.657 118.979 350 117.535 350 115.755C350 113.974 348.657 112.531 347 112.531C345.343 112.531 344 113.974 344 115.755C344 117.535 345.343 118.979 347 118.979Z" fill="#3B4C68"/>
<path opacity="0.1" d="M373 118.979C374.657 118.979 376 117.535 376 115.755C376 113.974 374.657 112.531 373 112.531C371.343 112.531 370 113.974 370 115.755C370 117.535 371.343 118.979 373 118.979Z" fill="#3B4C68"/>
<path opacity="0.1" d="M399 118.979C400.657 118.979 402 117.535 402 115.755C402 113.974 400.657 112.531 399 112.531C397.343 112.531 396 113.974 396 115.755C396 117.535 397.343 118.979 399 118.979Z" fill="#3B4C68"/>
<path opacity="0.1" d="M425 118.979C426.657 118.979 428 117.535 428 115.755C428 113.974 426.657 112.531 425 112.531C423.343 112.531 422 113.974 422 115.755C422 117.535 423.343 118.979 425 118.979Z" fill="#3B4C68"/>
<path opacity="0.1" d="M451 118.979C452.657 118.979 454 117.535 454 115.755C454 113.974 452.657 112.531 451 112.531C449.343 112.531 448 113.974 448 115.755C448 117.535 449.343 118.979 451 118.979Z" fill="#3B4C68"/>
<path opacity="0.1" d="M477 118.979C478.657 118.979 480 117.535 480 115.755C480 113.974 478.657 112.531 477 112.531C475.343 112.531 474 113.974 474 115.755C474 117.535 475.343 118.979 477 118.979Z" fill="#3B4C68"/>
<path opacity="0.1" d="M503 118.979C504.657 118.979 506 117.535 506 115.755C506 113.974 504.657 112.531 503 112.531C501.343 112.531 500 113.974 500 115.755C500 117.535 501.343 118.979 503 118.979Z" fill="#3B4C68"/>
<path opacity="0.1" d="M529 118.979C530.657 118.979 532 117.535 532 115.755C532 113.974 530.657 112.531 529 112.531C527.343 112.531 526 113.974 526 115.755C526 117.535 527.343 118.979 529 118.979Z" fill="#3B4C68"/>
<path opacity="0.1" d="M555 118.979C556.657 118.979 558 117.535 558 115.755C558 113.974 556.657 112.531 555 112.531C553.343 112.531 552 113.974 552 115.755C552 117.535 553.343 118.979 555 118.979Z" fill="#3B4C68"/>
<path opacity="0.1" d="M581 118.979C582.657 118.979 584 117.535 584 115.755C584 113.974 582.657 112.531 581 112.531C579.343 112.531 578 113.974 578 115.755C578 117.535 579.343 118.979 581 118.979Z" fill="#3B4C68"/>
<path opacity="0.1" d="M607 118.979C608.657 118.979 610 117.535 610 115.755C610 113.974 608.657 112.531 607 112.531C605.343 112.531 604 113.974 604 115.755C604 117.535 605.343 118.979 607 118.979Z" fill="#3B4C68"/>
<path opacity="0.1" d="M295 146.921C296.657 146.921 298 145.477 298 143.697C298 141.916 296.657 140.473 295 140.473C293.343 140.473 292 141.916 292 143.697C292 145.477 293.343 146.921 295 146.921Z" fill="#3B4C68"/>
<path opacity="0.1" d="M321 146.921C322.657 146.921 324 145.477 324 143.697C324 141.916 322.657 140.473 321 140.473C319.343 140.473 318 141.916 318 143.697C318 145.477 319.343 146.921 321 146.921Z" fill="#3B4C68"/>
<path opacity="0.1" d="M347 146.921C348.657 146.921 350 145.477 350 143.697C350 141.916 348.657 140.473 347 140.473C345.343 140.473 344 141.916 344 143.697C344 145.477 345.343 146.921 347 146.921Z" fill="#3B4C68"/>
<path opacity="0.1" d="M373 146.921C374.657 146.921 376 145.477 376 143.697C376 141.916 374.657 140.473 373 140.473C371.343 140.473 370 141.916 370 143.697C370 145.477 371.343 146.921 373 146.921Z" fill="#3B4C68"/>
<path opacity="0.1" d="M399 146.921C400.657 146.921 402 145.477 402 143.697C402 141.916 400.657 140.473 399 140.473C397.343 140.473 396 141.916 396 143.697C396 145.477 397.343 146.921 399 146.921Z" fill="#3B4C68"/>
<path opacity="0.1" d="M425 146.921C426.657 146.921 428 145.477 428 143.697C428 141.916 426.657 140.473 425 140.473C423.343 140.473 422 141.916 422 143.697C422 145.477 423.343 146.921 425 146.921Z" fill="#3B4C68"/>
<path opacity="0.1" d="M451 146.921C452.657 146.921 454 145.477 454 143.697C454 141.916 452.657 140.473 451 140.473C449.343 140.473 448 141.916 448 143.697C448 145.477 449.343 146.921 451 146.921Z" fill="#3B4C68"/>
<path opacity="0.1" d="M477 146.921C478.657 146.921 480 145.477 480 143.697C480 141.916 478.657 140.473 477 140.473C475.343 140.473 474 141.916 474 143.697C474 145.477 475.343 146.921 477 146.921Z" fill="#3B4C68"/>
<path opacity="0.1" d="M503 146.921C504.657 146.921 506 145.477 506 143.697C506 141.916 504.657 140.473 503 140.473C501.343 140.473 500 141.916 500 143.697C500 145.477 501.343 146.921 503 146.921Z" fill="#3B4C68"/>
<path opacity="0.1" d="M529 146.921C530.657 146.921 532 145.477 532 143.697C532 141.916 530.657 140.473 529 140.473C527.343 140.473 526 141.916 526 143.697C526 145.477 527.343 146.921 529 146.921Z" fill="#3B4C68"/>
<path opacity="0.1" d="M555 146.921C556.657 146.921 558 145.477 558 143.697C558 141.916 556.657 140.473 555 140.473C553.343 140.473 552 141.916 552 143.697C552 145.477 553.343 146.921 555 146.921Z" fill="#3B4C68"/>
<path opacity="0.1" d="M581 146.921C582.657 146.921 584 145.477 584 143.697C584 141.916 582.657 140.473 581 140.473C579.343 140.473 578 141.916 578 143.697C578 145.477 579.343 146.921 581 146.921Z" fill="#3B4C68"/>
<path opacity="0.1" d="M607 146.921C608.657 146.921 610 145.477 610 143.697C610 141.916 608.657 140.473 607 140.473C605.343 140.473 604 141.916 604 143.697C604 145.477 605.343 146.921 607 146.921Z" fill="#3B4C68"/>
<path opacity="0.1" d="M295 174.863C296.657 174.863 298 173.42 298 171.639C298 169.859 296.657 168.415 295 168.415C293.343 168.415 292 169.859 292 171.639C292 173.42 293.343 174.863 295 174.863Z" fill="#3B4C68"/>
<path opacity="0.1" d="M321 174.863C322.657 174.863 324 173.42 324 171.639C324 169.859 322.657 168.415 321 168.415C319.343 168.415 318 169.859 318 171.639C318 173.42 319.343 174.863 321 174.863Z" fill="#3B4C68"/>
<path opacity="0.1" d="M347 174.863C348.657 174.863 350 173.42 350 171.639C350 169.859 348.657 168.415 347 168.415C345.343 168.415 344 169.859 344 171.639C344 173.42 345.343 174.863 347 174.863Z" fill="#3B4C68"/>
<path opacity="0.1" d="M373 174.863C374.657 174.863 376 173.42 376 171.639C376 169.859 374.657 168.415 373 168.415C371.343 168.415 370 169.859 370 171.639C370 173.42 371.343 174.863 373 174.863Z" fill="#3B4C68"/>
<path opacity="0.1" d="M399 174.863C400.657 174.863 402 173.42 402 171.639C402 169.859 400.657 168.415 399 168.415C397.343 168.415 396 169.859 396 171.639C396 173.42 397.343 174.863 399 174.863Z" fill="#3B4C68"/>
<path opacity="0.1" d="M425 174.863C426.657 174.863 428 173.42 428 171.639C428 169.859 426.657 168.415 425 168.415C423.343 168.415 422 169.859 422 171.639C422 173.42 423.343 174.863 425 174.863Z" fill="#3B4C68"/>
<path opacity="0.1" d="M451 174.863C452.657 174.863 454 173.42 454 171.639C454 169.859 452.657 168.415 451 168.415C449.343 168.415 448 169.859 448 171.639C448 173.42 449.343 174.863 451 174.863Z" fill="#3B4C68"/>
<path opacity="0.1" d="M477 174.863C478.657 174.863 480 173.42 480 171.639C480 169.859 478.657 168.415 477 168.415C475.343 168.415 474 169.859 474 171.639C474 173.42 475.343 174.863 477 174.863Z" fill="#3B4C68"/>
<path opacity="0.1" d="M503 174.863C504.657 174.863 506 173.42 506 171.639C506 169.859 504.657 168.415 503 168.415C501.343 168.415 500 169.859 500 171.639C500 173.42 501.343 174.863 503 174.863Z" fill="#3B4C68"/>
<path opacity="0.1" d="M529 174.863C530.657 174.863 532 173.42 532 171.639C532 169.859 530.657 168.415 529 168.415C527.343 168.415 526 169.859 526 171.639C526 173.42 527.343 174.863 529 174.863Z" fill="#3B4C68"/>
<path opacity="0.1" d="M555 174.863C556.657 174.863 558 173.42 558 171.639C558 169.859 556.657 168.415 555 168.415C553.343 168.415 552 169.859 552 171.639C552 173.42 553.343 174.863 555 174.863Z" fill="#3B4C68"/>
<path opacity="0.1" d="M581 174.863C582.657 174.863 584 173.42 584 171.639C584 169.859 582.657 168.415 581 168.415C579.343 168.415 578 169.859 578 171.639C578 173.42 579.343 174.863 581 174.863Z" fill="#3B4C68"/>
<path opacity="0.1" d="M607 174.863C608.657 174.863 610 173.42 610 171.639C610 169.859 608.657 168.415 607 168.415C605.343 168.415 604 169.859 604 171.639C604 173.42 605.343 174.863 607 174.863Z" fill="#3B4C68"/>
<path opacity="0.1" d="M295 202.805C296.657 202.805 298 201.362 298 199.581C298 197.801 296.657 196.357 295 196.357C293.343 196.357 292 197.801 292 199.581C292 201.362 293.343 202.805 295 202.805Z" fill="#3B4C68"/>
<path opacity="0.1" d="M321 202.805C322.657 202.805 324 201.362 324 199.581C324 197.801 322.657 196.357 321 196.357C319.343 196.357 318 197.801 318 199.581C318 201.362 319.343 202.805 321 202.805Z" fill="#3B4C68"/>
<path opacity="0.1" d="M347 202.805C348.657 202.805 350 201.362 350 199.581C350 197.801 348.657 196.357 347 196.357C345.343 196.357 344 197.801 344 199.581C344 201.362 345.343 202.805 347 202.805Z" fill="#3B4C68"/>
<path opacity="0.1" d="M373 202.805C374.657 202.805 376 201.362 376 199.581C376 197.801 374.657 196.357 373 196.357C371.343 196.357 370 197.801 370 199.581C370 201.362 371.343 202.805 373 202.805Z" fill="#3B4C68"/>
<path opacity="0.1" d="M399 202.805C400.657 202.805 402 201.362 402 199.581C402 197.801 400.657 196.357 399 196.357C397.343 196.357 396 197.801 396 199.581C396 201.362 397.343 202.805 399 202.805Z" fill="#3B4C68"/>
<path opacity="0.1" d="M425 202.805C426.657 202.805 428 201.362 428 199.581C428 197.801 426.657 196.357 425 196.357C423.343 196.357 422 197.801 422 199.581C422 201.362 423.343 202.805 425 202.805Z" fill="#3B4C68"/>
<path opacity="0.1" d="M451 202.805C452.657 202.805 454 201.362 454 199.581C454 197.801 452.657 196.357 451 196.357C449.343 196.357 448 197.801 448 199.581C448 201.362 449.343 202.805 451 202.805Z" fill="#3B4C68"/>
<path opacity="0.1" d="M477 202.805C478.657 202.805 480 201.362 480 199.581C480 197.801 478.657 196.357 477 196.357C475.343 196.357 474 197.801 474 199.581C474 201.362 475.343 202.805 477 202.805Z" fill="#3B4C68"/>
<path opacity="0.1" d="M503 202.805C504.657 202.805 506 201.362 506 199.581C506 197.801 504.657 196.357 503 196.357C501.343 196.357 500 197.801 500 199.581C500 201.362 501.343 202.805 503 202.805Z" fill="#3B4C68"/>
<path opacity="0.1" d="M529 202.805C530.657 202.805 532 201.362 532 199.581C532 197.801 530.657 196.357 529 196.357C527.343 196.357 526 197.801 526 199.581C526 201.362 527.343 202.805 529 202.805Z" fill="#3B4C68"/>
<path opacity="0.1" d="M555 202.805C556.657 202.805 558 201.362 558 199.581C558 197.801 556.657 196.357 555 196.357C553.343 196.357 552 197.801 552 199.581C552 201.362 553.343 202.805 555 202.805Z" fill="#3B4C68"/>
<path opacity="0.1" d="M581 202.805C582.657 202.805 584 201.362 584 199.581C584 197.801 582.657 196.357 581 196.357C579.343 196.357 578 197.801 578 199.581C578 201.362 579.343 202.805 581 202.805Z" fill="#3B4C68"/>
<path opacity="0.1" d="M607 202.805C608.657 202.805 610 201.362 610 199.581C610 197.801 608.657 196.357 607 196.357C605.343 196.357 604 197.801 604 199.581C604 201.362 605.343 202.805 607 202.805Z" fill="#3B4C68"/>
<circle cx="485" cy="401" r="37" fill="#145855"/>
</svg>
